<svg version="1.1" viewBox="0 0 16 16" xmlns="http://www.w3.org/2000/svg">
  <path fill="#FFF" d="m14.553 1h-9.5319a0.44681 0.44681 0 0 0-0.44681 0.44681v3.1277h-3.1277a0.44681 0.44681 0 0 0-0.44681 0.44681v9.5319a0.44681 0.44681 0 0 0 0.44681 0.44681h9.5319a0.44681 0.44681 0 0 0 0.44681-0.44681v-3.1277h3.1277a0.44681 0.44681 0 0 0 0.44681-0.44681v-9.5319a0.44681 0.44681 0 0 0-0.44681-0.44681m-4.0213 13.106h-8.6383v-8.6383h8.6383zm3.5745-3.5745h-2.6809v-5.5106a0.44681 0.44681 0 0 0-0.44681-0.44681h-5.5106v-2.6809h8.6383z"/>
</svg>
