<svg class="" width="512" height="512" enable-background="new 0 0 512 512" version="1.1" viewBox="0 0 60 60" xml:space="preserve" xmlns="http://www.w3.org/2000/svg"><path class="cls-1" d="M52.87 25.95C51 27 33 28 31.52 28.49 32 27 34 8 34.05 7.13a34.561 34.561 0 0 1 15.44 1.22 3.37 3.37 0 0 1 2.16 2.16 34.561 34.561 0 0 1 1.22 15.44Z" fill="#71c285" style="" /><path class="" d="M58.27 28.72a15.537 15.537 0 0 0-2.69 1.04c-.16.87-.36 1.75-.6 2.65a35.808 35.808 0 0 1-9.58 15.94C37.1 56.66 28.29 58.99 21 59a37.895 37.895 0 0 1-14.61-3A4.508 4.508 0 0 1 4 53.61 37.895 37.895 0 0 1 1 39c.01-7.29 2.34-16.1 10.65-24.4a35.424 35.424 0 0 1 15.94-9.56c.88-.25 1.76-.45 2.63-.61a13.723 13.723 0 0 0 1.05-2.7.971.971 0 0 1 1.88-.01 48.978 48.978 0 0 1 .9 5.41 46.501 46.501 0 0 1-2.53 21.36c.82-.31 1.63-.58 2.44-.83a46.717 46.717 0 0 1 18.91-1.71c1.13.12 2.19.28 3.16.45q1.215.225 2.25.45a.965.965 0 0 1-.01 1.87Z" fill="#cb8252" style="" /><path class="cls-3" d="M30.22 4.43a15.699 15.699 0 0 1-2.9 4.09 1.001 1.001 0 0 1-.7.29 1.024 1.024 0 0 1-.71-.29 1.008 1.008 0 0 1 0-1.42 12.118 12.118 0 0 0 1.68-2.06c.88-.25 1.76-.45 2.63-.61ZM33.96 27.66c-.17.61-.38 1.2-.46 1.42a46.498 46.498 0 0 1-7.42 12.93.999.999 0 0 1-.78.38 1.07 1.07 0 0 1-.63-.22 1.01 1.01 0 0 1-.15-1.41 43.463 43.463 0 0 0 7-12.27c.82-.31 1.63-.58 2.44-.83ZM55.58 29.76c-.16.87-.36 1.75-.6 2.65a12.153 12.153 0 0 0-2.17 1.75 1.01 1.01 0 0 1-.71.3 1.024 1.024 0 0 1-.71-.29 1.008 1.008 0 0 1 0-1.42 16.408 16.408 0 0 1 4.19-2.99Z" /><path class="cls-4" d="M7.752 53.247a1 1 0 0 1-.952-.696 34.942 34.942 0 0 1 1.754-22.67 1 1 0 0 1 1.841.781 33.56 33.56 0 0 0-1.689 21.282 1.003 1.003 0 0 1-.954 1.303Z" fill="#cf976a" style="" /><path class="cls-5" d="M47.344 13.657a.997.997 0 0 1-.707-.293c-1.027-1.027-4.036-1.674-7.294-.97a1 1 0 0 1-.42-1.956c3.632-.78 7.472-.145 9.128 1.512a1 1 0 0 1-.707 1.707Z" fill="#7ed09e" style="" /></svg>
